<mxfile host="app.diagrams.net" agent="Mozilla/5.0 (Windows NT 10.0; Win64; x64) AppleWebKit/537.36 (KHTML, like Gecko) Chrome/127.0.0.0 Safari/537.36" version="24.7.6">
  <diagram name="Page-1" id="63VZQe59FXu1beSPVPTY">
    <mxGraphModel dx="1000" dy="530" grid="1" gridSize="10" guides="1" tooltips="1" connect="1" arrows="1" fold="1" page="1" pageScale="1" pageWidth="850" pageHeight="1100" math="0" shadow="0">
      <root>
        <mxCell id="0" />
        <mxCell id="1" parent="0" />
        <mxCell id="kN1yrgZLhZNTlmNRHriy-20" value="NEXT()" style="edgeStyle=orthogonalEdgeStyle;rounded=0;orthogonalLoop=1;jettySize=auto;html=1;" parent="1" source="kN1yrgZLhZNTlmNRHriy-1" target="kN1yrgZLhZNTlmNRHriy-2" edge="1">
          <mxGeometry relative="1" as="geometry" />
        </mxCell>
        <mxCell id="kN1yrgZLhZNTlmNRHriy-1" value="CORS" style="ellipse;whiteSpace=wrap;html=1;aspect=fixed;" parent="1" vertex="1">
          <mxGeometry x="310" y="160" width="80" height="80" as="geometry" />
        </mxCell>
        <mxCell id="kN1yrgZLhZNTlmNRHriy-21" value="" style="edgeStyle=orthogonalEdgeStyle;rounded=0;orthogonalLoop=1;jettySize=auto;html=1;" parent="1" source="kN1yrgZLhZNTlmNRHriy-2" target="kN1yrgZLhZNTlmNRHriy-3" edge="1">
          <mxGeometry relative="1" as="geometry" />
        </mxCell>
        <mxCell id="kN1yrgZLhZNTlmNRHriy-2" value="BODY PARSER" style="ellipse;whiteSpace=wrap;html=1;aspect=fixed;" parent="1" vertex="1">
          <mxGeometry x="310" y="280" width="80" height="80" as="geometry" />
        </mxCell>
        <mxCell id="kN1yrgZLhZNTlmNRHriy-22" value="" style="edgeStyle=orthogonalEdgeStyle;rounded=0;orthogonalLoop=1;jettySize=auto;html=1;" parent="1" source="kN1yrgZLhZNTlmNRHriy-3" target="kN1yrgZLhZNTlmNRHriy-4" edge="1">
          <mxGeometry relative="1" as="geometry" />
        </mxCell>
        <mxCell id="kN1yrgZLhZNTlmNRHriy-3" value="SESSION" style="ellipse;whiteSpace=wrap;html=1;aspect=fixed;" parent="1" vertex="1">
          <mxGeometry x="310" y="400" width="80" height="80" as="geometry" />
        </mxCell>
        <mxCell id="kN1yrgZLhZNTlmNRHriy-23" value="" style="edgeStyle=orthogonalEdgeStyle;rounded=0;orthogonalLoop=1;jettySize=auto;html=1;" parent="1" source="kN1yrgZLhZNTlmNRHriy-4" target="kN1yrgZLhZNTlmNRHriy-5" edge="1">
          <mxGeometry relative="1" as="geometry" />
        </mxCell>
        <mxCell id="kN1yrgZLhZNTlmNRHriy-4" value="PASSPORT INITIALIZATION" style="ellipse;whiteSpace=wrap;html=1;aspect=fixed;" parent="1" vertex="1">
          <mxGeometry x="310" y="520" width="80" height="80" as="geometry" />
        </mxCell>
        <mxCell id="kN1yrgZLhZNTlmNRHriy-24" value="" style="edgeStyle=orthogonalEdgeStyle;rounded=0;orthogonalLoop=1;jettySize=auto;html=1;" parent="1" source="kN1yrgZLhZNTlmNRHriy-5" target="kN1yrgZLhZNTlmNRHriy-6" edge="1">
          <mxGeometry relative="1" as="geometry" />
        </mxCell>
        <mxCell id="kN1yrgZLhZNTlmNRHriy-5" value="PASSPORT SESSION HANDLING" style="ellipse;whiteSpace=wrap;html=1;aspect=fixed;" parent="1" vertex="1">
          <mxGeometry x="310" y="640" width="80" height="80" as="geometry" />
        </mxCell>
        <mxCell id="kN1yrgZLhZNTlmNRHriy-6" value="RATE LIMITERS" style="ellipse;whiteSpace=wrap;html=1;aspect=fixed;" parent="1" vertex="1">
          <mxGeometry x="310" y="760" width="80" height="80" as="geometry" />
        </mxCell>
        <mxCell id="kN1yrgZLhZNTlmNRHriy-19" value="REQ" style="edgeStyle=orthogonalEdgeStyle;rounded=0;orthogonalLoop=1;jettySize=auto;html=1;" parent="1" source="kN1yrgZLhZNTlmNRHriy-7" target="kN1yrgZLhZNTlmNRHriy-1" edge="1">
          <mxGeometry relative="1" as="geometry" />
        </mxCell>
        <mxCell id="kN1yrgZLhZNTlmNRHriy-7" value="CLIENT" style="rounded=0;whiteSpace=wrap;html=1;" parent="1" vertex="1">
          <mxGeometry x="290" y="50" width="120" height="60" as="geometry" />
        </mxCell>
        <mxCell id="kN1yrgZLhZNTlmNRHriy-8" value="LOGIN" style="rounded=0;whiteSpace=wrap;html=1;" parent="1" vertex="1">
          <mxGeometry x="140" y="880" width="120" height="60" as="geometry" />
        </mxCell>
        <mxCell id="kN1yrgZLhZNTlmNRHriy-10" value="MARK ATTENDANCE" style="rounded=0;whiteSpace=wrap;html=1;" parent="1" vertex="1">
          <mxGeometry x="460" y="880" width="120" height="60" as="geometry" />
        </mxCell>
        <mxCell id="kN1yrgZLhZNTlmNRHriy-11" value="DASHBOARD" style="rounded=0;whiteSpace=wrap;html=1;" parent="1" vertex="1">
          <mxGeometry x="140" y="960" width="120" height="60" as="geometry" />
        </mxCell>
        <mxCell id="kN1yrgZLhZNTlmNRHriy-12" value="(&lt;span style=&quot;background-color: initial;&quot;&gt;POST)&lt;/span&gt;" style="text;html=1;align=center;verticalAlign=middle;whiteSpace=wrap;rounded=0;" parent="1" vertex="1">
          <mxGeometry x="490" y="910" width="60" height="30" as="geometry" />
        </mxCell>
        <mxCell id="kN1yrgZLhZNTlmNRHriy-13" value="POSTGRES POOL" style="rounded=0;whiteSpace=wrap;html=1;" parent="1" vertex="1">
          <mxGeometry x="460" y="960" width="120" height="60" as="geometry" />
        </mxCell>
        <mxCell id="kN1yrgZLhZNTlmNRHriy-17" value="" style="edgeStyle=orthogonalEdgeStyle;rounded=0;orthogonalLoop=1;jettySize=auto;html=1;" parent="1" source="kN1yrgZLhZNTlmNRHriy-14" target="kN1yrgZLhZNTlmNRHriy-10" edge="1">
          <mxGeometry relative="1" as="geometry" />
        </mxCell>
        <mxCell id="kN1yrgZLhZNTlmNRHriy-18" value="" style="edgeStyle=orthogonalEdgeStyle;rounded=0;orthogonalLoop=1;jettySize=auto;html=1;" parent="1" source="kN1yrgZLhZNTlmNRHriy-14" target="kN1yrgZLhZNTlmNRHriy-8" edge="1">
          <mxGeometry relative="1" as="geometry" />
        </mxCell>
        <mxCell id="kN1yrgZLhZNTlmNRHriy-14" value="ROUTES" style="text;html=1;align=center;verticalAlign=middle;whiteSpace=wrap;rounded=0;" parent="1" vertex="1">
          <mxGeometry x="320" y="850" width="60" height="30" as="geometry" />
        </mxCell>
      </root>
    </mxGraphModel>
  </diagram>
</mxfile>
